<svg preserveAspectRatio="none" overflow="visible" style="display: block;" width="238" height="220" viewBox="0 0 238 220" fill="none" xmlns="http://www.w3.org/2000/svg">
<g id="&#229;&#186;&#149;&#233;&#131;&#168;&#230;&#176;&#155;&#229;&#155;&#180;&#229;&#155;&#190; / &#230;&#139;&#137;&#229;&#138;&#168;&#230;&#182;&#136;&#232;&#180;&#185;" clip-path="url(#clip0_0_142)">
<path id="Vector" d="M35 155H20C17.2386 155 15 157.239 15 160V270C15 272.761 17.2386 275 20 275H35C37.7614 275 40 272.761 40 270V160C40 157.239 37.7614 155 35 155Z" fill="#73B4DC" fill-opacity="0.14"/>
<path id="Vector_2" d="M73 134H58C55.2386 134 53 136.239 53 139V249C53 251.761 55.2386 254 58 254H73C75.7614 254 78 251.761 78 249V139C78 136.239 75.7614 134 73 134Z" fill="#73B4DC" fill-opacity="0.14"/>
<path id="Vector_3" d="M111 113H96C93.2386 113 91 115.239 91 118V228C91 230.761 93.2386 233 96 233H111C113.761 233 116 230.761 116 228V118C116 115.239 113.761 113 111 113Z" fill="#73B4DC" fill-opacity="0.14"/>
<path id="Vector_4" d="M149 92H134C131.239 92 129 94.2386 129 97V207C129 209.761 131.239 212 134 212H149C151.761 212 154 209.761 154 207V97C154 94.2386 151.761 92 149 92Z" fill="#73B4DC" fill-opacity="0.14"/>
<path id="Vector_5" d="M187 71H172C169.239 71 167 73.2386 167 76V186C167 188.761 169.239 191 172 191H187C189.761 191 192 188.761 192 186V76C192 73.2386 189.761 71 187 71Z" fill="#73B4DC" fill-opacity="0.14"/>
<path id="Vector_6" d="M225 50H210C207.239 50 205 52.2386 205 55V165C205 167.761 207.239 170 210 170H225C227.761 170 230 167.761 230 165V55C230 52.2386 227.761 50 225 50Z" fill="#73B4DC" fill-opacity="0.14"/>
</g>
<defs>
<clipPath id="clip0_0_142">
<rect width="238" height="220" fill="white"/>
</clipPath>
</defs>
</svg>
